<svg class="svg-icon" style="width: 0; height: 0em;vertical-align: middle;fill: currentColor;overflow: hidden;" viewBox="0 0 1024 1024" version="1.1" xmlns="http://www.w3.org/2000/svg"><path d="M510.414861 41.213622c-208.354939 0-377.263158 169.284425-377.263158 378.104339C133.151703 628.146328 510.414861 1001.80805 510.414861 1001.80805S887.678019 628.146328 887.678019 419.317961c0-208.819913-168.908219-378.104338-377.263158-378.104339z m0 621.374613C375.593478 662.588235 266.303406 553.298163 266.303406 418.47678s109.290072-244.111455 244.111455-244.111455S754.526316 283.655397 754.526316 418.47678s-109.290072 244.111455-244.111455 244.111455z" fill="#10ACAE" /><path d="M683.550118 484.790555V376.265577c0-11.738485-27.957631-15.652722-27.957631 0v45.385709l-291.969981 1.564004V305.838894c0-13.298262-27.957631-16.037383-27.957631 0v178.195021A32.08322 32.08322 0 0 0 317.027864 513.204706c0 17.715517 14.253573 32.08322 31.838051 32.08322s31.838052-14.363476 31.838052-32.08322a32.100128 32.100128 0 0 0-17.081461-28.418378v-24.013804h291.969981v23.257164a32.074766 32.074766 0 0 0-18.632784 29.170791c0 17.715517 14.253573 32.08322 31.833824 32.08322 17.584479 0 31.838052-14.363476 31.838052-32.08322 0-12.342951-6.932343-23.045812-17.081461-28.409924z m-313.988624 28.414151c0 11.518679-9.265668 20.856206-20.695579 20.856206s-20.695579-9.337527-20.695579-20.856206c0-6.429325 2.950473-12.110464 7.490312-15.935934v9.206489c0 14.473379 27.957631 12.127373 27.957631 0v-7.866518a20.839298 20.839298 0 0 1 5.943215 14.595963z m299.232033 20.856206c-11.425684 0-20.695579-9.337527-20.695579-20.856206 0-6.429325 2.950473-12.110464 7.490312-15.935934v8.893688c0 20.344735 27.957631 14.790407 27.957631 0.317028v-7.866518a20.851979 20.851979 0 0 1 5.938988 14.595963c0.004227 11.514452-9.261441 20.851979-20.691352 20.851979zM383.81084 405.998563l71.436945 1.568232s0.934175-14.088718-12.423265-18.780731c-13.357441-4.696239-39.759521-10.326654-49.697288-10.956483-9.941994-0.621375-9.316392 6.260244-9.316392 6.260244v21.908738z m239.16582-7.824247c-3.102646-2.815207-18.632784-29.424413-124.241106-37.561462-17.394262-3.128008-23.295207 17.212499-23.295207 17.2125v29.737214h147.536313c4.658196 0.004227 3.106873-6.568817 0-9.388252z m-180.904553-25.070564c15.001759 0 27.162947-12.262638 27.162948-27.391207s-12.161189-27.391207-27.162948-27.391208-27.162947 12.262638-27.162947 27.391208 12.161189 27.391207 27.162947 27.391207z" fill="#10ACAE" /></svg>