<svg class="svg-icon" style="width: 1em; height: 1em;vertical-align: middle;fill: currentColor;overflow: hidden;" viewBox="0 0 1024 1024" version="1.1" xmlns="http://www.w3.org/2000/svg"><path d="M509.85 928.21h-4.42a32 32 0 0 1-12.69-2.62C445.91 905.35 401 871 359.28 823.47c-32.44-36.94-63.16-82-91.29-133.93-47.47-87.63-71.2-164.24-72.18-167.46a32.07 32.07 0 0 1-1.41-9.38V248.94a32 32 0 0 1 20.93-30c40-14.74 198.68-96.75 277-138.06l0.75-0.4a32 32 0 0 1 30.44 0.33l1 0.56a31.52 31.52 0 0 1 3 1.87C545.27 93.78 752.74 201.5 800 218.91a32 32 0 0 1 20.92 30V512.7a32.06 32.06 0 0 1-1.4 9.38c-1 3.22-24.71 79.83-72.18 167.46-28.14 51.93-58.85 97-91.29 133.93-41.77 47.53-86.67 81.88-133.5 102.12a32.05 32.05 0 0 1-12.7 2.62zM258.4 507.67c11.78 35.64 97.12 279.39 249.23 354.33 48.11-23.85 116-78.42 183.39-202.93 38.24-70.58 60.3-134.42 65.86-151.36V270.3c-38.54-17-101.8-48.72-140.39-68.33-29.32-14.9-60.06-30.77-84.33-43.56-10.74-5.65-18.74-9.9-24.77-13.16-48 25.19-185.33 96.77-249 125z m248.87-398.51zM532 87.08h0.05z m0 0V87z m-0.05 0z" fill="#2C77E5" /><path d="M379.65 417.28m32 0l192.41 0q32 0 32 32l0 0q0 32-32 32l-192.41 0q-32 0-32-32l0 0q0-32 32-32Z" fill="#1AD8E2" /><path d="M539.86 319.54m0 32l0 192.41q0 32-32 32l0 0q-32 0-32-32l0-192.41q0-32 32-32l0 0q32 0 32 32Z" fill="#1AD8E2" /></svg>